<?xml version="1.0" encoding="utf-8"?>
<!-- Generator: Adobe Illustrator 24.3.0, SVG Export Plug-In . SVG Version: 6.00 Build 0)  -->
<svg version="1.1" xmlns="http://www.w3.org/2000/svg" xmlns:xlink="http://www.w3.org/1999/xlink" x="0px" y="0px"
	 viewBox="0 0 481.9 245" style="enable-background:new 0 0 481.9 245;" xml:space="preserve">
<style type="text/css">
	.st3{fill:url(#SVGID_1_);}
	.st4{fill:url(#SVGID_2_);}
	.st5{fill:url(#SVGID_3_);}
	.st6{fill:url(#SVGID_4_);}
	.st7{fill:url(#SVGID_5_);}
	.st8{fill:url(#SVGID_6_);}
	.st9{fill:url(#SVGID_7_);}
	.st10{fill:url(#SVGID_8_);}
	.st11{fill:url(#SVGID_9_);}
	.st13{opacity:0.25;fill:url(#SVGID_10_);}
	.st14{opacity:0.25;fill:url(#SVGID_11_);}
	.st15{opacity:0.25;fill:url(#SVGID_12_);}
	.st16{opacity:0.25;fill:url(#SVGID_13_);}
	.st17{opacity:0.25;fill:url(#SVGID_14_);}
	.st18{opacity:0.25;fill:url(#SVGID_15_);}
	.st19{opacity:0.25;fill:url(#SVGID_16_);}
</style>
<g id="Capa_1">
	<linearGradient id="SVGID_1_" gradientUnits="userSpaceOnUse" x1="-67.7358" y1="164.4012" x2="496.3801" y2="164.4012">
		<stop  offset="0" style="stop-color:#3BBCDB"/>
		<stop  offset="1" style="stop-color:#277BC0"/>
	</linearGradient>
	<polygon class="st3" points="124.2,127.2 110.9,90.5 46,189.5 46,189.5 34.5,207 13.9,238.3 26.9,238.3 51.4,238.3 68.4,212.4 
		71.9,207 109.3,150 109.3,150 	"/>
	<linearGradient id="SVGID_2_" gradientUnits="userSpaceOnUse" x1="-74.1844" y1="118.3071" x2="494.6797" y2="118.3071">
		<stop  offset="0" style="stop-color:#3BBCDB"/>
		<stop  offset="1" style="stop-color:#277BC0"/>
	</linearGradient>
	<polygon class="st4" points="399,60.1 387.1,25.5 363.6,53.7 375.6,88.3 417.2,209.2 450.9,211.1 	"/>
	<linearGradient id="SVGID_3_" gradientUnits="userSpaceOnUse" x1="-68.5127" y1="81.1895" x2="493.279" y2="81.1895">
		<stop  offset="0" style="stop-color:#3BBCDB"/>
		<stop  offset="1" style="stop-color:#277BC0"/>
	</linearGradient>
	<polygon class="st5" points="292.9,35.4 292.9,72.3 292.9,118.4 292.9,124 292.9,146.5 324.3,110.7 324.3,52.8 324.3,15.9 	"/>
	<linearGradient id="SVGID_4_" gradientUnits="userSpaceOnUse" x1="-78.2172" y1="155.6166" x2="501.6877" y2="155.6166">
		<stop  offset="0" style="stop-color:#3BBCDB"/>
		<stop  offset="1" style="stop-color:#277BC0"/>
	</linearGradient>
	<polygon class="st6" points="268,176.5 266.1,171 257.5,146.1 251,127 242.2,101.5 214.7,118.1 230.3,163.1 240.7,193.5 
		242.7,199.1 246.3,209.5 279.4,209.7 	"/>
	<linearGradient id="SVGID_5_" gradientUnits="userSpaceOnUse" x1="-313.1462" y1="222.6565" x2="817.8226" y2="222.6565">
		<stop  offset="0" style="stop-color:#3BBCDB"/>
		<stop  offset="1" style="stop-color:#277BC0"/>
	</linearGradient>
	<polygon class="st7" points="71.9,207 51.4,238.3 297.9,238.3 300.1,207 	"/>
	<linearGradient id="SVGID_6_" gradientUnits="userSpaceOnUse" x1="-67.2238" y1="191.8128" x2="492.5642" y2="191.8128">
		<stop  offset="0" style="stop-color:#3BBCDB"/>
		<stop  offset="1" style="stop-color:#277BC0"/>
	</linearGradient>
	<polygon class="st8" points="459.6,236.2 449.5,207 428.6,207 418.3,207 416.4,207 364,207 324.3,207 324.3,178.9 324.1,145.3 
		292.9,180.8 292.9,207 292.9,238.3 324.3,238.3 408.3,238.3 427.2,238.3 439.3,238.3 460.3,238.3 	"/>
	<linearGradient id="SVGID_7_" gradientUnits="userSpaceOnUse" x1="-70.8602" y1="119.9967" x2="494.6471" y2="119.9967">
		<stop  offset="0" style="stop-color:#3BBCDB"/>
		<stop  offset="1" style="stop-color:#277BC0"/>
	</linearGradient>
	<polygon class="st9" points="364.8,52.3 324.3,101 318.2,108.3 303.6,125.9 292.9,138.7 292.9,156.7 292.9,161 292.9,187.7 
		309.2,168.2 324.3,150 376.4,87.4 	"/>
	<linearGradient id="SVGID_8_" gradientUnits="userSpaceOnUse" x1="-77.5743" y1="94.5902" x2="498.2686" y2="94.5902">
		<stop  offset="0" style="stop-color:#3BBCDB"/>
		<stop  offset="1" style="stop-color:#277BC0"/>
	</linearGradient>
	<polygon class="st10" points="294.2,34.5 232.4,73.2 230.6,74.3 205.2,90.2 201.8,92.3 150.1,124.7 160.7,154.7 215.6,120.6 
		229.5,111.9 242.9,103.6 258.4,93.9 295.2,70.9 	"/>
	<linearGradient id="SVGID_9_" gradientUnits="userSpaceOnUse" x1="-69.3452" y1="133.4896" x2="497.4133" y2="133.4896">
		<stop  offset="0" style="stop-color:#3BBCDB"/>
		<stop  offset="1" style="stop-color:#277BC0"/>
	</linearGradient>
	<polygon class="st11" points="179.3,194.9 164.6,152.4 154.2,122 145.1,95.5 145.1,95.5 132.2,58 110.4,91.1 123.3,128.6 
		123.3,128.6 126.9,139 137.4,169.4 151.2,208.7 184.4,209 	"/>
</g>
<g id="sombras">
	<linearGradient id="SVGID_10_" gradientUnits="userSpaceOnUse" x1="375.5647" y1="133.5645" x2="449.5318" y2="133.5645">
		<stop  offset="0" style="stop-color:#FFFFFF;stop-opacity:0.25"/>
		<stop  offset="0.2515" style="stop-color:#FDFDFD;stop-opacity:0.4386"/>
		<stop  offset="0.3887" style="stop-color:#F8F8F8;stop-opacity:0.5415"/>
		<stop  offset="0.4984" style="stop-color:#EEEEEE;stop-opacity:0.6238"/>
		<stop  offset="0.5936" style="stop-color:#E0E0DF;stop-opacity:0.6952"/>
		<stop  offset="0.6793" style="stop-color:#CCCCCC;stop-opacity:0.7595"/>
		<stop  offset="0.7583" style="stop-color:#B4B4B4;stop-opacity:0.8187"/>
		<stop  offset="0.8321" style="stop-color:#959595;stop-opacity:0.8741"/>
		<stop  offset="0.9018" style="stop-color:#6F6E6E;stop-opacity:0.9264"/>
		<stop  offset="0.9659" style="stop-color:#3F3F3E;stop-opacity:0.9744"/>
		<stop  offset="1" style="stop-color:#000000"/>
	</linearGradient>
	<polygon class="st13" points="416.4,207 418.3,207 428.6,207 449.5,207 399,60.1 375.6,88.3 	"/>
	<linearGradient id="SVGID_11_" gradientUnits="userSpaceOnUse" x1="308.6096" y1="263.1567" x2="308.6096" y2="156.5748">
		<stop  offset="0" style="stop-color:#FFFFFF;stop-opacity:0.25"/>
		<stop  offset="0.2515" style="stop-color:#FDFDFD;stop-opacity:0.4386"/>
		<stop  offset="0.3887" style="stop-color:#F8F8F8;stop-opacity:0.5415"/>
		<stop  offset="0.4984" style="stop-color:#EEEEEE;stop-opacity:0.6238"/>
		<stop  offset="0.5936" style="stop-color:#E0E0DF;stop-opacity:0.6952"/>
		<stop  offset="0.6793" style="stop-color:#CCCCCC;stop-opacity:0.7595"/>
		<stop  offset="0.7583" style="stop-color:#B4B4B4;stop-opacity:0.8187"/>
		<stop  offset="0.8321" style="stop-color:#959595;stop-opacity:0.8741"/>
		<stop  offset="0.9018" style="stop-color:#6F6E6E;stop-opacity:0.9264"/>
		<stop  offset="0.9659" style="stop-color:#3F3F3E;stop-opacity:0.9744"/>
		<stop  offset="1" style="stop-color:#000000"/>
	</linearGradient>
	<polygon class="st14" points="309.2,168.2 292.9,187.7 292.9,207 292.9,238.3 324.3,238.3 324.3,207 324.3,178.9 324.3,150 	"/>
	<linearGradient id="SVGID_12_" gradientUnits="userSpaceOnUse" x1="308.6096" y1="4.4367" x2="308.6096" y2="138.2809">
		<stop  offset="0" style="stop-color:#FFFFFF;stop-opacity:0.25"/>
		<stop  offset="0.1479" style="stop-color:#FDFDFD;stop-opacity:0.361"/>
		<stop  offset="0.2765" style="stop-color:#F5F5F5;stop-opacity:0.4574"/>
		<stop  offset="0.3979" style="stop-color:#E8E8E8;stop-opacity:0.5485"/>
		<stop  offset="0.515" style="stop-color:#D5D5D5;stop-opacity:0.6362"/>
		<stop  offset="0.6289" style="stop-color:#BCBCBC;stop-opacity:0.7217"/>
		<stop  offset="0.7405" style="stop-color:#9B9B9B;stop-opacity:0.8053"/>
		<stop  offset="0.8501" style="stop-color:#717170;stop-opacity:0.8876"/>
		<stop  offset="0.9555" style="stop-color:#3C3B3B;stop-opacity:0.9667"/>
		<stop  offset="1" style="stop-color:#000000"/>
	</linearGradient>
	<polygon class="st15" points="292.9,35.4 292.9,72.3 292.9,118.4 292.9,124 292.9,138.7 303.6,125.9 318.2,108.3 324.3,101 
		324.3,52.8 324.3,15.9 	"/>
	<linearGradient id="SVGID_13_" gradientUnits="userSpaceOnUse" x1="121.9401" y1="160.8166" x2="295.1063" y2="52.3269">
		<stop  offset="0" style="stop-color:#FFFFFF;stop-opacity:0.25"/>
		<stop  offset="0.2676" style="stop-color:#FDFDFD;stop-opacity:0.4507"/>
		<stop  offset="0.4051" style="stop-color:#F8F8F8;stop-opacity:0.5539"/>
		<stop  offset="0.5131" style="stop-color:#EEEEEE;stop-opacity:0.6349"/>
		<stop  offset="0.6058" style="stop-color:#E0E0E0;stop-opacity:0.7043"/>
		<stop  offset="0.6886" style="stop-color:#CECECD;stop-opacity:0.7664"/>
		<stop  offset="0.7643" style="stop-color:#B6B6B6;stop-opacity:0.8232"/>
		<stop  offset="0.8347" style="stop-color:#989897;stop-opacity:0.876"/>
		<stop  offset="0.9008" style="stop-color:#737272;stop-opacity:0.9256"/>
		<stop  offset="0.9613" style="stop-color:#454544;stop-opacity:0.971"/>
		<stop  offset="1" style="stop-color:#000000"/>
	</linearGradient>
	<polygon class="st16" points="232.4,73.2 230.6,74.3 205.2,90.2 201.8,92.3 154.2,122 164.6,152.4 215.6,120.6 229.5,111.9 
		242.9,103.6 258.4,93.9 292.9,72.3 292.9,35.4 	"/>
	<linearGradient id="SVGID_14_" gradientUnits="userSpaceOnUse" x1="321.0973" y1="222.6565" x2="70.987" y2="222.6565">
		<stop  offset="0" style="stop-color:#FFFFFF;stop-opacity:0.25"/>
		<stop  offset="0.1164" style="stop-color:#FCFCFC;stop-opacity:0.3373"/>
		<stop  offset="0.2408" style="stop-color:#F3F3F3;stop-opacity:0.4306"/>
		<stop  offset="0.3691" style="stop-color:#E3E3E3;stop-opacity:0.5268"/>
		<stop  offset="0.5" style="stop-color:#CCCCCC;stop-opacity:0.625"/>
		<stop  offset="0.6329" style="stop-color:#AEAEAE;stop-opacity:0.7247"/>
		<stop  offset="0.7676" style="stop-color:#868685;stop-opacity:0.8257"/>
		<stop  offset="0.901" style="stop-color:#525251;stop-opacity:0.9257"/>
		<stop  offset="1" style="stop-color:#000000"/>
	</linearGradient>
	<polygon class="st17" points="278.5,207 276.9,207 245.4,207 236.1,207 219.1,207 183.4,207 160,207 150.3,207 77.1,207 71.9,207 
		68.4,212.4 51.4,238.3 109.8,238.3 161.1,238.3 168.9,238.3 194.2,238.3 210.1,238.3 250.8,238.3 256.1,238.3 289.3,238.3 
		292.9,238.3 292.9,207 	"/>
	<linearGradient id="SVGID_15_" gradientUnits="userSpaceOnUse" x1="58.8104" y1="195.4561" x2="126.4904" y2="101.3761">
		<stop  offset="0" style="stop-color:#FFFFFF;stop-opacity:0.25"/>
		<stop  offset="0.1164" style="stop-color:#FCFCFC;stop-opacity:0.3373"/>
		<stop  offset="0.2408" style="stop-color:#F3F3F3;stop-opacity:0.4306"/>
		<stop  offset="0.3691" style="stop-color:#E3E3E3;stop-opacity:0.5268"/>
		<stop  offset="0.5" style="stop-color:#CCCCCC;stop-opacity:0.625"/>
		<stop  offset="0.6329" style="stop-color:#AEAEAE;stop-opacity:0.7247"/>
		<stop  offset="0.7676" style="stop-color:#868685;stop-opacity:0.8257"/>
		<stop  offset="0.901" style="stop-color:#525251;stop-opacity:0.9257"/>
		<stop  offset="1" style="stop-color:#000000"/>
	</linearGradient>
	<polygon class="st18" points="123.3,128.6 110.4,91.1 46,189.5 46,189.5 34.5,207 13.9,238.3 26.9,238.3 51.4,238.3 68.4,212.4 
		71.9,207 109.3,150 109.3,150 	"/>
	<linearGradient id="SVGID_16_" gradientUnits="userSpaceOnUse" x1="123.8632" y1="84.296" x2="172.3432" y2="218.696">
		<stop  offset="0" style="stop-color:#FFFFFF;stop-opacity:0.25"/>
		<stop  offset="0.1164" style="stop-color:#FCFCFC;stop-opacity:0.3373"/>
		<stop  offset="0.2408" style="stop-color:#F3F3F3;stop-opacity:0.4306"/>
		<stop  offset="0.3691" style="stop-color:#E3E3E3;stop-opacity:0.5268"/>
		<stop  offset="0.5" style="stop-color:#CCCCCC;stop-opacity:0.625"/>
		<stop  offset="0.6329" style="stop-color:#AEAEAE;stop-opacity:0.7247"/>
		<stop  offset="0.7676" style="stop-color:#868685;stop-opacity:0.8257"/>
		<stop  offset="0.901" style="stop-color:#525251;stop-opacity:0.9257"/>
		<stop  offset="1" style="stop-color:#000000"/>
	</linearGradient>
	<polygon class="st19" points="179.3,194.9 164.6,152.4 154.2,122 145.1,95.5 145.1,95.5 132.2,58 110.4,91.1 123.3,128.6 
		123.3,128.6 126.9,139 137.4,169.4 150.3,207 160,207 183.4,207 	"/>
</g>
</svg>
